<svg id="图层_1" data-name="图层 1" xmlns="http://www.w3.org/2000/svg" viewBox="0 0 226.62 149.97"><defs><style>.cls-1{fill:#fff;}.cls-2{fill:none;stroke:#fff;stroke-miterlimit:10;stroke-width:0.75px;}</style></defs><path d="M457.86,271.14q0,28.42-.08,56.86h13.78V291.21L471.8,271c-1.94.16-4,.28-6.15.33C462.89,271.34,460.28,271.28,457.86,271.14Z" transform="translate(-399.76 -222.65)"/><polygon points="116.03 48.69 116.03 90.73 129.81 90.73 129.81 74.37 129.81 60.22 116.03 48.69"/><path d="M498.16,270.3v20.91h-26.6L470.13,305h28v23h13.78l-.2-57.56c-2.21,0-4.43-.08-6.67-.1S500.44,270.3,498.16,270.3Z" transform="translate(-399.76 -222.65)"/><polygon points="116.03 93.7 116.03 105.34 147.82 105.34 163.39 93.7 116.03 93.7"/><polygon points="134.68 69.5 134.68 81.15 163.39 81.15 150.5 69.5 134.68 69.5"/><path d="M542.37,328H554a18.37,18.37,0,0,0,0-35.84H542.37l.31,11.64c6.45-.24,10.77,3.72,10.69,6.53s-4.44,6.39-10.69,6C542.58,320.23,542.48,324.12,542.37,328Z" transform="translate(-399.76 -222.65)"/><polygon points="116.83 45.3 132.01 56.95 159.39 56.95 146.5 45.3 116.83 45.3"/><path d="M538.37,303.8H550A18.37,18.37,0,0,0,550,268H538.37l.31,11.65c6.45-.25,10.77,3.71,10.69,6.53s-4.44,6.39-10.69,6Q538.53,298,538.37,303.8Z" transform="translate(-399.76 -222.65)"/><path d="M402.32,350.85h-2.56V339.39h2.56v4.69h5.17v-4.69H410v11.46h-2.5v-5.12h-5.17Z" transform="translate(-399.76 -222.65)"/><path d="M423.06,345.2q-.27,5.55-5.71,5.86c-3.62-.21-5.53-2.16-5.7-5.86.17-3.84,2.08-5.83,5.7-6Q422.69,339.54,423.06,345.2Zm-2.62,0q-.1-4.21-3.09-4.37-3,.21-3.14,4.37.1,4.16,3.14,4.37Q420.4,349.47,420.44,345.2Z" transform="translate(-399.76 -222.65)"/><path d="M434.84,350.85h-2.4l-5.28-7.73v7.73h-2.5V339.33h2.5l5.17,8.05v-8.05h2.51Z" transform="translate(-399.76 -222.65)"/><path d="M445.87,350.85h-9V339.39h9V341h-6.45v3.2h6v1.65h-6v3.52h6.45Z" transform="translate(-399.76 -222.65)"/><path d="M458.4,339.39l-4.69,7v4.48H451.2v-4.48l-4.58-7h3l3,4.9,2.88-4.9Z" transform="translate(-399.76 -222.65)"/><path d="M468.9,350.85h-5.65V339.39H469c2.45,0,3.7,1,3.73,2.82a2.54,2.54,0,0,1-1.86,2.67,2.81,2.81,0,0,1,2.34,2.66Q473.39,351,468.9,350.85Zm-.58-9.86h-2.51v3h2.61c1.18,0,1.74-.52,1.71-1.55S469.52,341,468.32,341Zm.37,4.95h-2.88v3.42h2.88c1.31,0,1.95-.55,1.92-1.66S470,345.94,468.69,345.94Z" transform="translate(-399.76 -222.65)"/><path d="M485.59,350.85h-2.67l-1-2.61h-4.47l-1,2.61h-2.67l4.32-11.46h3.09Zm-5.86-9.12L478,346.58h3.36Z" transform="translate(-399.76 -222.65)"/><path d="M490.49,350.85h-3.73V339.39h3.57q6.45-.11,6.35,5.65Q497,351.11,490.49,350.85Zm-.21-9.86h-1v8.37h1q3.95.11,3.79-4.32Q494.22,340.93,490.28,341Z" transform="translate(-399.76 -222.65)"/><path d="M508.73,342.59h-2.67a2.4,2.4,0,0,0-2.51-1.76c-2,.18-3,1.61-3.14,4.32q.16,4.1,3.36,4.37a2.4,2.4,0,0,0,2.61-1.76v-1.92H503v-1.6h5.81v4.26q-1.06,2.56-5.07,2.56c-3.76-.14-5.72-2.13-5.86-6q.21-5.59,5.7-5.86C506.22,339.23,507.94,340.35,508.73,342.59Z" transform="translate(-399.76 -222.65)"/><path d="M519.44,350.85h-9V339.39h9V341H513v3.2h6v1.65h-6v3.52h6.45Z" transform="translate(-399.76 -222.65)"/><path d="M527.87,346.32l3.41,4.53h-2.94l-3.19-4.42h-1.6v4.42H521V339.39h5.49q4.15,0,4.16,3.57C530.73,345,529.78,346.11,527.87,346.32ZM523.55,341v3.78H526c1.46,0,2.15-.55,2.08-1.76,0-1.38-.66-2.06-2.08-2Z" transform="translate(-399.76 -222.65)"/><path d="M541.78,350.85h-5.65V339.39h5.75c2.46,0,3.7,1,3.74,2.82a2.55,2.55,0,0,1-1.87,2.67,2.82,2.82,0,0,1,2.35,2.66Q546.25,351,541.78,350.85Zm-.59-9.86h-2.5v3h2.61c1.17,0,1.74-.52,1.7-1.55S542.4,341,541.19,341Zm.38,4.95h-2.88v3.42h2.88c1.31,0,1.95-.55,1.91-1.66S542.84,345.94,541.57,345.94Z" transform="translate(-399.76 -222.65)"/><path d="M554.47,346.32l3.41,4.53H555l-3.2-4.42h-1.6v4.42h-2.51V339.39h5.49c2.78,0,4.16,1.19,4.16,3.57Q557.35,346,554.47,346.32ZM550.15,341v3.78h2.45c1.46,0,2.15-.55,2.08-1.76,0-1.38-.66-2.06-2.08-2Z" transform="translate(-399.76 -222.65)"/><path d="M570.09,345.2q-.27,5.55-5.71,5.86-5.43-.31-5.7-5.86.27-5.76,5.7-6Q569.72,339.54,570.09,345.2Zm-2.62,0q-.11-4.21-3.09-4.37-3,.21-3.14,4.37.1,4.16,3.14,4.37Q567.42,349.47,567.47,345.2Z" transform="translate(-399.76 -222.65)"/><path d="M581.44,341h-3.78v9.86H575.1V341h-3.79v-1.6h10.13Z" transform="translate(-399.76 -222.65)"/><path d="M585.55,350.85H583V339.39h2.56v4.69h5.17v-4.69h2.5v11.46h-2.5v-5.12h-5.17Z" transform="translate(-399.76 -222.65)"/><path d="M604.15,350.85h-9V339.39h9V341H597.7v3.2h6v1.65h-6v3.52h6.45Z" transform="translate(-399.76 -222.65)"/><path d="M612.57,346.32l3.42,4.53h-2.94l-3.19-4.42h-1.6v4.42h-2.51V339.39h5.49q4.15,0,4.16,3.57C615.44,345,614.49,346.11,612.57,346.32ZM608.26,341v3.78h2.45c1.46,0,2.15-.55,2.08-1.76,0-1.38-.66-2.06-2.08-2Z" transform="translate(-399.76 -222.65)"/><path d="M616.79,348.93v-2a5.76,5.76,0,0,0,4.53,2.67c1.6,0,2.41-.59,2.45-1.76,0-.92-.73-1.51-2.19-1.76q-4.91-.8-4.53-3.68.16-3.09,4.32-3.14c2.7.07,4.27,1.26,4.69,3.57h-2.45a2.34,2.34,0,0,0-2.19-1.92c-1.2,0-1.79.5-1.76,1.49s.61,1.44,2,1.66q4.69.9,4.69,3.62c0,2.28-1.53,3.41-4.69,3.41A5.5,5.5,0,0,1,616.79,348.93Z" transform="translate(-399.76 -222.65)"/><path d="M457.12,364.56h-2.5a2.39,2.39,0,0,0-2.4-2.13c-2,.07-3,1.52-3,4.37q.1,4.05,3.57,4.26,2.29.1,4.1-2.56v2.19a5.66,5.66,0,0,1-4.69,1.92c-3.55-.18-5.42-2.15-5.59-5.92q.26-5.6,5.49-5.92Q456.26,360.83,457.12,364.56Z" transform="translate(-399.76 -222.65)"/><path d="M469.81,366.74q-.27,5.55-5.7,5.87-5.44-.32-5.71-5.87.27-5.75,5.71-6Q469.44,361.1,469.81,366.74Zm-2.61,0q-.1-4.2-3.09-4.37c-2,.15-3,1.6-3.15,4.37.07,2.78,1.12,4.23,3.15,4.38Q467.14,371,467.2,366.74Z" transform="translate(-399.76 -222.65)"/><path d="M481.59,372.4h-2.4l-5.28-7.73v7.73h-2.5V360.88h2.5l5.18,8.05v-8.05h2.5Z" transform="translate(-399.76 -222.65)"/><path d="M483.35,370.48v-2a5.83,5.83,0,0,0,4.53,2.67c1.6,0,2.42-.59,2.45-1.76,0-.93-.72-1.51-2.18-1.76-3.27-.54-4.78-1.76-4.53-3.68s1.54-3.11,4.32-3.15,4.26,1.27,4.69,3.58h-2.46a2.31,2.31,0,0,0-2.18-1.92c-1.21,0-1.8.49-1.76,1.49s.6,1.44,2,1.65c3.12.61,4.69,1.81,4.69,3.63q0,3.41-4.69,3.41A5.54,5.54,0,0,1,483.35,370.48Z" transform="translate(-399.76 -222.65)"/><path d="M504.25,362.53h-3.79v9.87H497.9v-9.87h-3.78v-1.6h10.13Z" transform="translate(-399.76 -222.65)"/><path d="M512.62,367.86,516,372.4H513.1L509.9,368h-1.6v4.43h-2.51V360.93h5.5q4.15,0,4.15,3.58Q515.5,367.54,512.62,367.86Zm-4.32-5.33v3.79h2.45c1.46,0,2.15-.55,2.08-1.76,0-1.39-.66-2.06-2.08-2Z" transform="translate(-399.76 -222.65)"/><path d="M517.1,367.54v-6.61h2.55v7.2c0,2,.88,2.93,2.62,2.93s2.68-.9,2.61-2.93v-7.2h2.56v6.51c.18,3.62-1.57,5.35-5.23,5.17C518.7,372.72,517,371,517.1,367.54Z" transform="translate(-399.76 -222.65)"/><path d="M539.43,364.56h-2.5a2.39,2.39,0,0,0-2.4-2.13c-2,.07-3,1.52-3,4.37q.1,4.05,3.57,4.26,2.3.1,4.11-2.56v2.19a5.67,5.67,0,0,1-4.69,1.92c-3.56-.18-5.42-2.15-5.6-5.92q.27-5.6,5.49-5.92C537.18,360.81,538.86,362.07,539.43,364.56Z" transform="translate(-399.76 -222.65)"/><path d="M550.73,362.53H547v9.87h-2.56v-9.87h-3.78v-1.6h10.12Z" transform="translate(-399.76 -222.65)"/><path d="M554.73,372.4h-2.5V360.93h2.5Z" transform="translate(-399.76 -222.65)"/><path d="M567.79,366.74c-.17,3.7-2.08,5.66-5.7,5.87q-5.45-.32-5.7-5.87.25-5.75,5.7-6Q567.42,361.1,567.79,366.74Zm-2.61,0q-.1-4.2-3.09-4.37c-2,.15-3,1.6-3.15,4.37.07,2.78,1.12,4.23,3.15,4.38Q565.14,371,565.18,366.74Z" transform="translate(-399.76 -222.65)"/><path d="M579.57,372.4h-2.39l-5.28-7.73v7.73h-2.51V360.88h2.51l5.17,8.05v-8.05h2.5Z" transform="translate(-399.76 -222.65)"/><path class="cls-1" d="M463.4,266.91a48.62,48.62,0,0,0,1.52-21.24c-2.74-7.26-1.72-13.46,1.42-15.18a5.54,5.54,0,0,1,4.27-.2A22.32,22.32,0,0,1,485,223.77c10.26-.51,16.79,6.62,17.63,7.58,2.73-.45,4.13.38,4.65.76,2.89,2.09,3.32,8.13-.22,14.42a41.85,41.85,0,0,0-1.21,17.16Z" transform="translate(-399.76 -222.65)"/><path d="M461.89,268.12l.46-1.52a47.82,47.82,0,0,0,1.5-20.66,22.11,22.11,0,0,1-1.51-10.06c.35-3.06,1.58-5.31,3.47-6.35a6.48,6.48,0,0,1,4.47-.45,23.42,23.42,0,0,1,14.7-6.4c9.63-.48,16.15,5.45,18.1,7.51a6.71,6.71,0,0,1,4.87,1c1.75,1.27,2.72,3.58,2.75,6.51a19.2,19.2,0,0,1-2.59,9.22A40.52,40.52,0,0,0,507,263.54l.16,1.15Zm6.64-37a3.46,3.46,0,0,0-1.67.37c-2.49,1.37-3.52,6.92-.92,13.83l0,.11,0,.12a49.67,49.67,0,0,1-1.12,20.19l39.78-3A42.75,42.75,0,0,1,506,246.23l0-.12.07-.12a17.08,17.08,0,0,0,2.38-8.23c0-2.2-.7-3.93-1.85-4.77a5.14,5.14,0,0,0-3.83-.56l-.6.09-.4-.45c-1.14-1.28-7.29-7.67-16.75-7.2a21.29,21.29,0,0,0-13.71,6.19l-.45.45-.61-.17A7.16,7.16,0,0,0,468.53,231.08Z" transform="translate(-399.76 -222.65)"/><path d="M460.41,272.23q3.48-12.24,7-24.48-3.36-12.06-1.29-13.08c.74-.37,2,.33,3.79,2.08,2.42.13,4.35.26,5.58.35,5.34.39,6.59.72,8.09,0,3.54-1.77,2.65,2.4,9.48.25s8.85,0,8.85,0c.15-.22,1.44-2.13,2.77-2s2.74,2.53,2.29,5.88l-2.48,5.66q2.64,12.66,5.26,25.33Z" transform="translate(-399.76 -222.65)"/><path class="cls-1" d="M474.91,259.39a10,10,0,0,0,1,1.28,11.56,11.56,0,0,0,1.17,1.05,11.71,11.71,0,0,0,2.63,1.51,14.75,14.75,0,0,0,5.85,1.12,15.86,15.86,0,0,0,5.87-1.19,12.46,12.46,0,0,0,2.66-1.49,10.45,10.45,0,0,0,1.19-1,9.2,9.2,0,0,0,1-1.25,5.57,5.57,0,0,1-.49,1.63,6.88,6.88,0,0,1-.9,1.49,9.88,9.88,0,0,1-2.61,2.34,12.41,12.41,0,0,1-3.23,1.42,13.82,13.82,0,0,1-3.5.5,12.52,12.52,0,0,1-6.77-1.86,9.65,9.65,0,0,1-2.6-2.37,8.1,8.1,0,0,1-.87-1.51A5.64,5.64,0,0,1,474.91,259.39Z" transform="translate(-399.76 -222.65)"/><polygon class="cls-1" points="76.69 39.25 85.86 48.33 94.36 39.82 89.57 42.37 81.97 42.4 76.69 39.25"/><path class="cls-1" d="M473,242.27s1.42-1.71,3.72,0,1.76,2.35,1.76,2.35S476.85,246.24,473,242.27Z" transform="translate(-399.76 -222.65)"/><path class="cls-1" d="M498.41,242.27s-1.42-1.71-3.72,0-1.76,2.35-1.76,2.35S494.59,246.24,498.41,242.27Z" transform="translate(-399.76 -222.65)"/><path class="cls-1" d="M482.09,250a.66.66,0,0,1,0-1,5.33,5.33,0,0,1,3.86-1.42,5.28,5.28,0,0,1,3.26,1.42.65.65,0,0,1-.07,1l-2.3,1.65a2.12,2.12,0,0,1-2.48,0Z" transform="translate(-399.76 -222.65)"/><path d="M483.15,250.22s1.07-.28,1.23.4C484.38,250.62,484.13,251.58,483.15,250.22Z" transform="translate(-399.76 -222.65)"/><path d="M488.18,250.14s-1.07-.28-1.23.4C487,250.54,487.2,251.5,488.18,250.14Z" transform="translate(-399.76 -222.65)"/><line class="cls-2" x1="85.83" y1="28.56" x2="85.83" y2="31.05"/><path class="cls-1" d="M480.93,255.05a7,7,0,0,1,9.58,0,10.47,10.47,0,0,0-9.58,0Z" transform="translate(-399.76 -222.65)"/><path d="M589.39,292.29c3.54-6.1,2-15-3.07-19.71a16.72,16.72,0,0,0-6.07-3.37A23.16,23.16,0,0,0,570.14,268l.13.07H559.15a13.37,13.37,0,0,1,5.26,5.36,13,13,0,0,1,1.41,4.58h4.06a8.61,8.61,0,0,1,5.93,2.24,6.6,6.6,0,0,1,1.91,3.1,8,8,0,0,1-1.06,6c-2.61,5-8.22,6.26-9.45,6.52a12.71,12.71,0,0,1,2.83,3.54,13,13,0,0,1,1.41,4.35c6-.65,10.83,1.37,11.9,4.52a5.91,5.91,0,0,1-.18,3.8c-1.51,3.78-6.41,4.32-6.61,4.34h-5.11a22.18,22.18,0,0,1-3.21,5.5,22.84,22.84,0,0,1-7.5,6.15h20.77a16.54,16.54,0,0,0,11.34-4.7,16.42,16.42,0,0,0-6.53-27.4A13.56,13.56,0,0,0,589.39,292.29Z" transform="translate(-399.76 -222.65)"/></svg>